# Static, deliberately faceted human for the DCM1 loader lesson.
o torso
v -0.360 0.200 -0.170
v 0.360 0.200 -0.170
v 0.360 1.080 -0.170
v -0.360 1.080 -0.170
v -0.360 0.200 0.170
v 0.360 0.200 0.170
v 0.360 1.080 0.170
v -0.360 1.080 0.170
vt 0.040 0.040
vt 0.460 0.040
vt 0.460 0.460
vt 0.040 0.460
f 1/1 2/2 3/3 4/4
vt 0.040 0.040
vt 0.460 0.040
vt 0.460 0.460
vt 0.040 0.460
f 5/5 8/6 7/7 6/8
vt 0.040 0.040
vt 0.460 0.040
vt 0.460 0.460
vt 0.040 0.460
f 1/9 5/10 6/11 2/12
vt 0.040 0.040
vt 0.460 0.040
vt 0.460 0.460
vt 0.040 0.460
f 2/13 6/14 7/15 3/16
vt 0.040 0.040
vt 0.460 0.040
vt 0.460 0.460
vt 0.040 0.460
f 3/17 7/18 8/19 4/20
vt 0.040 0.040
vt 0.460 0.040
vt 0.460 0.460
vt 0.040 0.460
f 4/21 8/22 5/23 1/24
o hips
v -0.320 -0.120 -0.160
v 0.320 -0.120 -0.160
v 0.320 0.220 -0.160
v -0.320 0.220 -0.160
v -0.320 -0.120 0.160
v 0.320 -0.120 0.160
v 0.320 0.220 0.160
v -0.320 0.220 0.160
vt 0.540 0.040
vt 0.960 0.040
vt 0.960 0.460
vt 0.540 0.460
f 9/25 10/26 11/27 12/28
vt 0.540 0.040
vt 0.960 0.040
vt 0.960 0.460
vt 0.540 0.460
f 13/29 16/30 15/31 14/32
vt 0.540 0.040
vt 0.960 0.040
vt 0.960 0.460
vt 0.540 0.460
f 9/33 13/34 14/35 10/36
vt 0.540 0.040
vt 0.960 0.040
vt 0.960 0.460
vt 0.540 0.460
f 10/37 14/38 15/39 11/40
vt 0.540 0.040
vt 0.960 0.040
vt 0.960 0.460
vt 0.540 0.460
f 11/41 15/42 16/43 12/44
vt 0.540 0.040
vt 0.960 0.040
vt 0.960 0.460
vt 0.540 0.460
f 12/45 16/46 13/47 9/48
o neck
v -0.110 1.070 -0.100
v 0.110 1.070 -0.100
v 0.110 1.220 -0.100
v -0.110 1.220 -0.100
v -0.110 1.070 0.100
v 0.110 1.070 0.100
v 0.110 1.220 0.100
v -0.110 1.220 0.100
vt 0.040 0.540
vt 0.460 0.540
vt 0.460 0.960
vt 0.040 0.960
f 17/49 18/50 19/51 20/52
vt 0.040 0.540
vt 0.460 0.540
vt 0.460 0.960
vt 0.040 0.960
f 21/53 24/54 23/55 22/56
vt 0.040 0.540
vt 0.460 0.540
vt 0.460 0.960
vt 0.040 0.960
f 17/57 21/58 22/59 18/60
vt 0.040 0.540
vt 0.460 0.540
vt 0.460 0.960
vt 0.040 0.960
f 18/61 22/62 23/63 19/64
vt 0.040 0.540
vt 0.460 0.540
vt 0.460 0.960
vt 0.040 0.960
f 19/65 23/66 24/67 20/68
vt 0.040 0.540
vt 0.460 0.540
vt 0.460 0.960
vt 0.040 0.960
f 20/69 24/70 21/71 17/72
o head
v -0.250 1.200 -0.220
v 0.250 1.200 -0.220
v 0.250 1.700 -0.220
v -0.250 1.700 -0.220
v -0.250 1.200 0.200
v 0.250 1.200 0.200
v 0.250 1.700 0.200
v -0.250 1.700 0.200
vt 0.040 0.540
vt 0.460 0.540
vt 0.460 0.960
vt 0.040 0.960
f 25/73 26/74 27/75 28/76
vt 0.040 0.540
vt 0.460 0.540
vt 0.460 0.960
vt 0.040 0.960
f 29/77 32/78 31/79 30/80
vt 0.040 0.540
vt 0.460 0.540
vt 0.460 0.960
vt 0.040 0.960
f 25/81 29/82 30/83 26/84
vt 0.040 0.540
vt 0.460 0.540
vt 0.460 0.960
vt 0.040 0.960
f 26/85 30/86 31/87 27/88
vt 0.040 0.540
vt 0.460 0.540
vt 0.460 0.960
vt 0.040 0.960
f 27/89 31/90 32/91 28/92
vt 0.040 0.540
vt 0.460 0.540
vt 0.460 0.960
vt 0.040 0.960
f 28/93 32/94 29/95 25/96
o hair
v -0.260 1.580 -0.230
v 0.260 1.580 -0.230
v 0.260 1.750 -0.230
v -0.260 1.750 -0.230
v -0.260 1.580 0.210
v 0.260 1.580 0.210
v 0.260 1.750 0.210
v -0.260 1.750 0.210
vt 0.540 0.540
vt 0.960 0.540
vt 0.960 0.960
vt 0.540 0.960
f 33/97 34/98 35/99 36/100
vt 0.540 0.540
vt 0.960 0.540
vt 0.960 0.960
vt 0.540 0.960
f 37/101 40/102 39/103 38/104
vt 0.540 0.540
vt 0.960 0.540
vt 0.960 0.960
vt 0.540 0.960
f 33/105 37/106 38/107 34/108
vt 0.540 0.540
vt 0.960 0.540
vt 0.960 0.960
vt 0.540 0.960
f 34/109 38/110 39/111 35/112
vt 0.540 0.540
vt 0.960 0.540
vt 0.960 0.960
vt 0.540 0.960
f 35/113 39/114 40/115 36/116
vt 0.540 0.540
vt 0.960 0.540
vt 0.960 0.960
vt 0.540 0.960
f 36/117 40/118 37/119 33/120
o left_upper_arm
v -0.580 0.480 -0.140
v -0.350 0.480 -0.140
v -0.350 1.060 -0.140
v -0.580 1.060 -0.140
v -0.580 0.480 0.140
v -0.350 0.480 0.140
v -0.350 1.060 0.140
v -0.580 1.060 0.140
vt 0.040 0.040
vt 0.460 0.040
vt 0.460 0.460
vt 0.040 0.460
f 41/121 42/122 43/123 44/124
vt 0.040 0.040
vt 0.460 0.040
vt 0.460 0.460
vt 0.040 0.460
f 45/125 48/126 47/127 46/128
vt 0.040 0.040
vt 0.460 0.040
vt 0.460 0.460
vt 0.040 0.460
f 41/129 45/130 46/131 42/132
vt 0.040 0.040
vt 0.460 0.040
vt 0.460 0.460
vt 0.040 0.460
f 42/133 46/134 47/135 43/136
vt 0.040 0.040
vt 0.460 0.040
vt 0.460 0.460
vt 0.040 0.460
f 43/137 47/138 48/139 44/140
vt 0.040 0.040
vt 0.460 0.040
vt 0.460 0.460
vt 0.040 0.460
f 44/141 48/142 45/143 41/144
o left_forearm
v -0.640 0.000 -0.130
v -0.440 0.000 -0.130
v -0.440 0.500 -0.130
v -0.640 0.500 -0.130
v -0.640 0.000 0.130
v -0.440 0.000 0.130
v -0.440 0.500 0.130
v -0.640 0.500 0.130
vt 0.040 0.540
vt 0.460 0.540
vt 0.460 0.960
vt 0.040 0.960
f 49/145 50/146 51/147 52/148
vt 0.040 0.540
vt 0.460 0.540
vt 0.460 0.960
vt 0.040 0.960
f 53/149 56/150 55/151 54/152
vt 0.040 0.540
vt 0.460 0.540
vt 0.460 0.960
vt 0.040 0.960
f 49/153 53/154 54/155 50/156
vt 0.040 0.540
vt 0.460 0.540
vt 0.460 0.960
vt 0.040 0.960
f 50/157 54/158 55/159 51/160
vt 0.040 0.540
vt 0.460 0.540
vt 0.460 0.960
vt 0.040 0.960
f 51/161 55/162 56/163 52/164
vt 0.040 0.540
vt 0.460 0.540
vt 0.460 0.960
vt 0.040 0.960
f 52/165 56/166 53/167 49/168
o right_upper_arm
v 0.350 0.500 -0.140
v 0.660 0.500 -0.140
v 0.660 1.060 -0.140
v 0.350 1.060 -0.140
v 0.350 0.500 0.140
v 0.660 0.500 0.140
v 0.660 1.060 0.140
v 0.350 1.060 0.140
vt 0.040 0.040
vt 0.460 0.040
vt 0.460 0.460
vt 0.040 0.460
f 57/169 58/170 59/171 60/172
vt 0.040 0.040
vt 0.460 0.040
vt 0.460 0.460
vt 0.040 0.460
f 61/173 64/174 63/175 62/176
vt 0.040 0.040
vt 0.460 0.040
vt 0.460 0.460
vt 0.040 0.460
f 57/177 61/178 62/179 58/180
vt 0.040 0.040
vt 0.460 0.040
vt 0.460 0.460
vt 0.040 0.460
f 58/181 62/182 63/183 59/184
vt 0.040 0.040
vt 0.460 0.040
vt 0.460 0.460
vt 0.040 0.460
f 59/185 63/186 64/187 60/188
vt 0.040 0.040
vt 0.460 0.040
vt 0.460 0.460
vt 0.040 0.460
f 60/189 64/190 61/191 57/192
o right_forearm
v 0.550 0.060 -0.130
v 0.760 0.060 -0.130
v 0.760 0.520 -0.130
v 0.550 0.520 -0.130
v 0.550 0.060 0.130
v 0.760 0.060 0.130
v 0.760 0.520 0.130
v 0.550 0.520 0.130
vt 0.040 0.540
vt 0.460 0.540
vt 0.460 0.960
vt 0.040 0.960
f 65/193 66/194 67/195 68/196
vt 0.040 0.540
vt 0.460 0.540
vt 0.460 0.960
vt 0.040 0.960
f 69/197 72/198 71/199 70/200
vt 0.040 0.540
vt 0.460 0.540
vt 0.460 0.960
vt 0.040 0.960
f 65/201 69/202 70/203 66/204
vt 0.040 0.540
vt 0.460 0.540
vt 0.460 0.960
vt 0.040 0.960
f 66/205 70/206 71/207 67/208
vt 0.040 0.540
vt 0.460 0.540
vt 0.460 0.960
vt 0.040 0.960
f 67/209 71/210 72/211 68/212
vt 0.040 0.540
vt 0.460 0.540
vt 0.460 0.960
vt 0.040 0.960
f 68/213 72/214 69/215 65/216
o left_thigh
v -0.290 -0.770 -0.140
v -0.020 -0.770 -0.140
v -0.020 -0.100 -0.140
v -0.290 -0.100 -0.140
v -0.290 -0.770 0.140
v -0.020 -0.770 0.140
v -0.020 -0.100 0.140
v -0.290 -0.100 0.140
vt 0.540 0.040
vt 0.960 0.040
vt 0.960 0.460
vt 0.540 0.460
f 73/217 74/218 75/219 76/220
vt 0.540 0.040
vt 0.960 0.040
vt 0.960 0.460
vt 0.540 0.460
f 77/221 80/222 79/223 78/224
vt 0.540 0.040
vt 0.960 0.040
vt 0.960 0.460
vt 0.540 0.460
f 73/225 77/226 78/227 74/228
vt 0.540 0.040
vt 0.960 0.040
vt 0.960 0.460
vt 0.540 0.460
f 74/229 78/230 79/231 75/232
vt 0.540 0.040
vt 0.960 0.040
vt 0.960 0.460
vt 0.540 0.460
f 75/233 79/234 80/235 76/236
vt 0.540 0.040
vt 0.960 0.040
vt 0.960 0.460
vt 0.540 0.460
f 76/237 80/238 77/239 73/240
o right_thigh
v 0.020 -0.750 -0.140
v 0.290 -0.750 -0.140
v 0.290 -0.100 -0.140
v 0.020 -0.100 -0.140
v 0.020 -0.750 0.140
v 0.290 -0.750 0.140
v 0.290 -0.100 0.140
v 0.020 -0.100 0.140
vt 0.540 0.040
vt 0.960 0.040
vt 0.960 0.460
vt 0.540 0.460
f 81/241 82/242 83/243 84/244
vt 0.540 0.040
vt 0.960 0.040
vt 0.960 0.460
vt 0.540 0.460
f 85/245 88/246 87/247 86/248
vt 0.540 0.040
vt 0.960 0.040
vt 0.960 0.460
vt 0.540 0.460
f 81/249 85/250 86/251 82/252
vt 0.540 0.040
vt 0.960 0.040
vt 0.960 0.460
vt 0.540 0.460
f 82/253 86/254 87/255 83/256
vt 0.540 0.040
vt 0.960 0.040
vt 0.960 0.460
vt 0.540 0.460
f 83/257 87/258 88/259 84/260
vt 0.540 0.040
vt 0.960 0.040
vt 0.960 0.460
vt 0.540 0.460
f 84/261 88/262 85/263 81/264
o left_shin
v -0.280 -1.350 -0.130
v -0.040 -1.350 -0.130
v -0.040 -0.750 -0.130
v -0.280 -0.750 -0.130
v -0.280 -1.350 0.130
v -0.040 -1.350 0.130
v -0.040 -0.750 0.130
v -0.280 -0.750 0.130
vt 0.540 0.040
vt 0.960 0.040
vt 0.960 0.460
vt 0.540 0.460
f 89/265 90/266 91/267 92/268
vt 0.540 0.040
vt 0.960 0.040
vt 0.960 0.460
vt 0.540 0.460
f 93/269 96/270 95/271 94/272
vt 0.540 0.040
vt 0.960 0.040
vt 0.960 0.460
vt 0.540 0.460
f 89/273 93/274 94/275 90/276
vt 0.540 0.040
vt 0.960 0.040
vt 0.960 0.460
vt 0.540 0.460
f 90/277 94/278 95/279 91/280
vt 0.540 0.040
vt 0.960 0.040
vt 0.960 0.460
vt 0.540 0.460
f 91/281 95/282 96/283 92/284
vt 0.540 0.040
vt 0.960 0.040
vt 0.960 0.460
vt 0.540 0.460
f 92/285 96/286 93/287 89/288
o right_shin
v 0.040 -1.350 -0.130
v 0.280 -1.350 -0.130
v 0.280 -0.730 -0.130
v 0.040 -0.730 -0.130
v 0.040 -1.350 0.130
v 0.280 -1.350 0.130
v 0.280 -0.730 0.130
v 0.040 -0.730 0.130
vt 0.540 0.040
vt 0.960 0.040
vt 0.960 0.460
vt 0.540 0.460
f 97/289 98/290 99/291 100/292
vt 0.540 0.040
vt 0.960 0.040
vt 0.960 0.460
vt 0.540 0.460
f 101/293 104/294 103/295 102/296
vt 0.540 0.040
vt 0.960 0.040
vt 0.960 0.460
vt 0.540 0.460
f 97/297 101/298 102/299 98/300
vt 0.540 0.040
vt 0.960 0.040
vt 0.960 0.460
vt 0.540 0.460
f 98/301 102/302 103/303 99/304
vt 0.540 0.040
vt 0.960 0.040
vt 0.960 0.460
vt 0.540 0.460
f 99/305 103/306 104/307 100/308
vt 0.540 0.040
vt 0.960 0.040
vt 0.960 0.460
vt 0.540 0.460
f 100/309 104/310 101/311 97/312
o left_boot
v -0.310 -1.480 -0.290
v -0.020 -1.480 -0.290
v -0.020 -1.310 -0.290
v -0.310 -1.310 -0.290
v -0.310 -1.480 0.140
v -0.020 -1.480 0.140
v -0.020 -1.310 0.140
v -0.310 -1.310 0.140
vt 0.540 0.540
vt 0.960 0.540
vt 0.960 0.960
vt 0.540 0.960
f 105/313 106/314 107/315 108/316
vt 0.540 0.540
vt 0.960 0.540
vt 0.960 0.960
vt 0.540 0.960
f 109/317 112/318 111/319 110/320
vt 0.540 0.540
vt 0.960 0.540
vt 0.960 0.960
vt 0.540 0.960
f 105/321 109/322 110/323 106/324
vt 0.540 0.540
vt 0.960 0.540
vt 0.960 0.960
vt 0.540 0.960
f 106/325 110/326 111/327 107/328
vt 0.540 0.540
vt 0.960 0.540
vt 0.960 0.960
vt 0.540 0.960
f 107/329 111/330 112/331 108/332
vt 0.540 0.540
vt 0.960 0.540
vt 0.960 0.960
vt 0.540 0.960
f 108/333 112/334 109/335 105/336
o right_boot
v 0.020 -1.480 -0.290
v 0.310 -1.480 -0.290
v 0.310 -1.310 -0.290
v 0.020 -1.310 -0.290
v 0.020 -1.480 0.140
v 0.310 -1.480 0.140
v 0.310 -1.310 0.140
v 0.020 -1.310 0.140
vt 0.540 0.540
vt 0.960 0.540
vt 0.960 0.960
vt 0.540 0.960
f 113/337 114/338 115/339 116/340
vt 0.540 0.540
vt 0.960 0.540
vt 0.960 0.960
vt 0.540 0.960
f 117/341 120/342 119/343 118/344
vt 0.540 0.540
vt 0.960 0.540
vt 0.960 0.960
vt 0.540 0.960
f 113/345 117/346 118/347 114/348
vt 0.540 0.540
vt 0.960 0.540
vt 0.960 0.960
vt 0.540 0.960
f 114/349 118/350 119/351 115/352
vt 0.540 0.540
vt 0.960 0.540
vt 0.960 0.960
vt 0.540 0.960
f 115/353 119/354 120/355 116/356
vt 0.540 0.540
vt 0.960 0.540
vt 0.960 0.960
vt 0.540 0.960
f 116/357 120/358 117/359 113/360
o left_eye
v -0.140 1.430 -0.235
v -0.070 1.430 -0.235
v -0.070 1.490 -0.235
v -0.140 1.490 -0.235
v -0.140 1.430 -0.215
v -0.070 1.430 -0.215
v -0.070 1.490 -0.215
v -0.140 1.490 -0.215
vt 0.540 0.540
vt 0.960 0.540
vt 0.960 0.960
vt 0.540 0.960
f 121/361 122/362 123/363 124/364
vt 0.540 0.540
vt 0.960 0.540
vt 0.960 0.960
vt 0.540 0.960
f 125/365 128/366 127/367 126/368
vt 0.540 0.540
vt 0.960 0.540
vt 0.960 0.960
vt 0.540 0.960
f 121/369 125/370 126/371 122/372
vt 0.540 0.540
vt 0.960 0.540
vt 0.960 0.960
vt 0.540 0.960
f 122/373 126/374 127/375 123/376
vt 0.540 0.540
vt 0.960 0.540
vt 0.960 0.960
vt 0.540 0.960
f 123/377 127/378 128/379 124/380
vt 0.540 0.540
vt 0.960 0.540
vt 0.960 0.960
vt 0.540 0.960
f 124/381 128/382 125/383 121/384
o right_eye
v 0.070 1.430 -0.235
v 0.140 1.430 -0.235
v 0.140 1.490 -0.235
v 0.070 1.490 -0.235
v 0.070 1.430 -0.215
v 0.140 1.430 -0.215
v 0.140 1.490 -0.215
v 0.070 1.490 -0.215
vt 0.540 0.540
vt 0.960 0.540
vt 0.960 0.960
vt 0.540 0.960
f 129/385 130/386 131/387 132/388
vt 0.540 0.540
vt 0.960 0.540
vt 0.960 0.960
vt 0.540 0.960
f 133/389 136/390 135/391 134/392
vt 0.540 0.540
vt 0.960 0.540
vt 0.960 0.960
vt 0.540 0.960
f 129/393 133/394 134/395 130/396
vt 0.540 0.540
vt 0.960 0.540
vt 0.960 0.960
vt 0.540 0.960
f 130/397 134/398 135/399 131/400
vt 0.540 0.540
vt 0.960 0.540
vt 0.960 0.960
vt 0.540 0.960
f 131/401 135/402 136/403 132/404
vt 0.540 0.540
vt 0.960 0.540
vt 0.960 0.960
vt 0.540 0.960
f 132/405 136/406 133/407 129/408
